<?xml version="1.0" encoding="UTF-8" standalone="no"?>
<svg
   xmlns:dc="http://purl.org/dc/elements/1.1/"
   xmlns:cc="http://creativecommons.org/ns#"
   xmlns:rdf="http://www.w3.org/1999/02/22-rdf-syntax-ns#"
   xmlns:svg="http://www.w3.org/2000/svg"
   xmlns="http://www.w3.org/2000/svg"
   xmlns:sodipodi="http://sodipodi.sourceforge.net/DTD/sodipodi-0.dtd"
   xmlns:inkscape="http://www.inkscape.org/namespaces/inkscape"
   version="1.1"
   id="Layer_1"
   x=""
   y=""
   viewBox="0 0 409.23512 101.14538"
   enable-background="new 0 0 595.3 841.9"
   xml:space="preserve"
   inkscape:version="0.91 r13725"
   sodipodi:docname="Logo_BdP.svg"
   width="409.23511"
   height="101.14539"><metadata
     id="metadata79"><rdf:RDF><cc:Work
         rdf:about=""><dc:format>image/svg+xml</dc:format><dc:type
           rdf:resource="http://purl.org/dc/dcmitype/StillImage" /><dc:title></dc:title></cc:Work></rdf:RDF></metadata><defs
     id="defs77" /><sodipodi:namedview
     pagecolor="#ffffff"
     bordercolor="#666666"
     borderopacity="1"
     objecttolerance="10"
     gridtolerance="10"
     guidetolerance="10"
     inkscape:pageopacity="0"
     inkscape:pageshadow="2"
     inkscape:window-width="1547"
     inkscape:window-height="746"
     id="namedview75"
     showgrid="false"
     fit-margin-top="18.4"
     fit-margin-left="0"
     fit-margin-right="18.4"
     fit-margin-bottom="18.4"
     inkscape:zoom="1.5857199"
     inkscape:cx="271.53312"
     inkscape:cy="18.101378"
     inkscape:window-x="0"
     inkscape:window-y="0"
     inkscape:window-maximized="0"
     inkscape:current-layer="Layer_1" /><path
     d="m 88.23512,47.622693 c -0.3,0 -0.6,0 -0.9,0 -0.3,0 -0.5,0 -0.8,0 -0.2,0 -0.5,0 -0.8,-0.1 l 0,-6.2 c 0.2,0 0.5,0 0.8,0 0.3,0 0.5,0 0.8,0 0.7,0 1.3,0 1.9,0.1 0.6,0.1 1.1,0.2 1.6,0.5 0.5,0.2 0.9,0.5 1.1,1 0.3,0.4 0.4,1 0.4,1.6 0,1 -0.4,1.8 -1.1,2.3 -0.7,0.5 -1.6,0.8 -3,0.8 m 0,9.2 c -0.3,0 -0.6,0 -0.9,0 -0.3,0 -0.5,0 -0.8,0 -0.2,0 -0.5,0 -0.7,-0.1 l 0,-6.8 c 0.3,0 0.5,0 0.8,-0.1 0.3,0 0.5,0 0.8,0 0.3,0 0.6,0 0.9,0 0.7,0 1.3,0 1.9,0.2 0.6,0.1 1.1,0.3 1.5,0.5 0.4,0.3 0.8,0.6 1,1.1 0.2,0.4 0.4,1 0.4,1.7 0,0.7 -0.2,1.2 -0.4,1.7 -0.3,0.4 -0.7,0.8 -1.2,1.1 -0.5,0.3 -1,0.4 -1.6,0.6 -0.6,0.1 -1.1,0.1 -1.7,0.1 z m -0.1,2.5 c 0.7,0 1.5,0 2.3,-0.1 0.8,-0.1 1.5,-0.3 2.2,-0.5 0.7,-0.3 1.3,-0.6 1.9,-1.1 0.6,-0.4 1,-1 1.3,-1.7 0.3,-0.7 0.5,-1.5 0.5,-2.5 0,-0.8 -0.2,-1.5 -0.5,-2.1 -0.3,-0.6 -0.8,-1.2 -1.4,-1.6 -0.6,-0.4 -1.4,-0.8 -2.3,-1 l 0,-0.1 c 0.7,-0.2 1.3,-0.5 1.9,-0.9 0.6,-0.4 1,-1 1.3,-1.6 0.3,-0.6 0.5,-1.3 0.5,-2 0,-0.9 -0.2,-1.6 -0.5,-2.2 -0.3,-0.6 -0.8,-1.1 -1.3,-1.5 -0.5,-0.4 -1.2,-0.7 -1.8,-0.9 -0.7,-0.2 -1.4,-0.4 -2.1,-0.4 -0.7,-0.1 -1.4,-0.1 -2,-0.1 -0.6,0 -1.3,0 -1.9,0 -0.7,0 -1.3,0.1 -1.8,0.1 -0.6,0 -1.1,0.1 -1.5,0.1 l 0,19.8 c 0.7,0.1 1.5,0.2 2.4,0.2 0.8,0 1.7,0.1 2.8,0.1 z"
     id="path3"
     inkscape:connector-curvature="0"
     style="fill:#231f20" /><path
     d="m 104.73512,50.422693 2.3,-6.5 c 0.1,-0.2 0.1,-0.4 0.2,-0.7 0.1,-0.3 0.2,-0.5 0.2,-0.8 0.1,-0.3 0.1,-0.5 0.2,-0.8 l 0.1,0 c 0,0.2 0.1,0.5 0.2,0.8 0.1,0.3 0.1,0.5 0.2,0.8 0.1,0.2 0.1,0.5 0.2,0.6 l 2.3,6.6 -5.9,0 z m -6.1,8.7 3,0 2.2,-6.3 7.7,0 2.2,6.3 3.3,0 -7.3,-20.3 -3.6,0 -7.5,20.3 z"
     id="path5"
     inkscape:connector-curvature="0"
     style="fill:#231f20" /><path
     d="m 120.93512,59.122693 2.7,0 0,-13.2 c 0,-0.4 0,-0.8 0,-1.3 0,-0.4 -0.1,-0.9 -0.1,-1.3 0,-0.4 -0.1,-0.8 -0.1,-1.1 l 0.1,0 c 0.1,0.1 0.1,0.3 0.3,0.5 0.1,0.2 0.2,0.4 0.3,0.7 0.1,0.2 0.3,0.5 0.4,0.7 0.1,0.2 0.2,0.4 0.3,0.5 l 9.7,14.5 2.9,0 0,-20.1 -2.7,0 0,12.8 c 0,0.8 0,1.4 0,1.9 0,0.5 0.1,0.9 0.1,1.1 l -0.1,0 c -0.1,-0.1 -0.1,-0.3 -0.2,-0.5 -0.1,-0.2 -0.2,-0.4 -0.3,-0.6 -0.1,-0.2 -0.2,-0.4 -0.3,-0.6 -0.1,-0.2 -0.2,-0.3 -0.2,-0.4 l -9.2,-13.8 -3.6,0 0,20.2 z"
     id="path7"
     inkscape:connector-curvature="0"
     style="fill:#231f20" /><path
     d="m 152.83512,59.522693 c 0.6,0 1.3,0 1.9,-0.1 0.7,-0.1 1.3,-0.2 1.9,-0.3 0.6,-0.1 1.2,-0.3 1.8,-0.6 l 0.4,-2.6 -0.1,-0.1 c -0.5,0.2 -1.1,0.4 -1.7,0.5 -0.6,0.1 -1.2,0.3 -1.8,0.3 -0.6,0.1 -1.2,0.1 -1.7,0.1 -1.6,0 -3,-0.3 -4.1,-0.9 -1.2,-0.6 -2.1,-1.5 -2.7,-2.6 -0.6,-1.1 -0.9,-2.5 -1,-4 0,-1.2 0.2,-2.3 0.6,-3.3 0.4,-1 0.9,-1.8 1.6,-2.5 0.7,-0.7 1.5,-1.2 2.5,-1.6 0.9,-0.4 1.9,-0.6 3,-0.6 0.6,0 1.3,0 1.9,0.1 0.6,0.1 1.2,0.2 1.7,0.3 0.5,0.1 1,0.3 1.5,0.4 l 0.7,-2.6 c -0.9,-0.3 -1.9,-0.6 -2.8,-0.7 -0.9,-0.1 -1.9,-0.2 -2.8,-0.2 -1.6,0 -3.1,0.3 -4.5,0.8 -1.4,0.5 -2.5,1.3 -3.5,2.3 -1,1 -1.8,2.1 -2.3,3.5 -0.5,1.3 -0.8,2.8 -0.8,4.5 0,0.8 0.1,1.5 0.2,2.3 0.2,0.8 0.4,1.5 0.8,2.3 0.3,0.7 0.8,1.4 1.3,2 0.5,0.6 1.2,1.2 2,1.7 0.8,0.5 1.6,0.9 2.7,1.1 0.9,0.3 2,0.5 3.3,0.5"
     id="path9"
     inkscape:connector-curvature="0"
     style="fill:#231f20" /><path
     d="m 171.53512,57.122693 c -1,0 -1.8,-0.2 -2.6,-0.5 -0.7,-0.3 -1.3,-0.7 -1.8,-1.3 -0.5,-0.5 -0.9,-1.1 -1.2,-1.8 -0.3,-0.7 -0.5,-1.4 -0.7,-2.2 -0.1,-0.8 -0.2,-1.6 -0.2,-2.3 0,-0.8 0.1,-1.5 0.2,-2.3 0.1,-0.8 0.3,-1.5 0.6,-2.1 0.3,-0.7 0.7,-1.3 1.2,-1.8 0.5,-0.5 1.1,-0.9 1.8,-1.3 0.7,-0.3 1.5,-0.5 2.5,-0.5 1,0 1.9,0.2 2.6,0.5 0.7,0.3 1.4,0.8 1.8,1.3 0.5,0.5 0.9,1.2 1.2,1.9 0.3,0.7 0.5,1.4 0.6,2.1 0.1,0.7 0.2,1.5 0.2,2.2 0,0.8 -0.1,1.6 -0.2,2.3 -0.1,0.8 -0.4,1.5 -0.7,2.2 -0.3,0.7 -0.7,1.3 -1.2,1.8 -0.5,0.5 -1.1,0.9 -1.8,1.2 -0.6,0.4 -1.4,0.6 -2.3,0.6 m -0.2,2.4 c 1.5,0 2.8,-0.3 4,-0.8 1.2,-0.5 2.2,-1.3 3.1,-2.3 0.9,-1 1.5,-2.1 2,-3.5 0.5,-1.3 0.7,-2.8 0.7,-4.5 0,-1 -0.1,-2 -0.4,-2.9 -0.3,-1 -0.6,-1.9 -1.1,-2.7 -0.5,-0.8 -1.1,-1.6 -1.9,-2.2 -0.8,-0.6 -1.7,-1.1 -2.7,-1.5 -1,-0.4 -2.2,-0.6 -3.4,-0.6 -1.5,0 -2.9,0.3 -4.1,0.8 -1.2,0.5 -2.2,1.3 -3.1,2.3 -0.9,1 -1.5,2.1 -2,3.4 -0.4,1.3 -0.7,2.7 -0.7,4.3 0,1.5 0.2,2.8 0.7,4 0.4,1.2 1.1,2.3 1.9,3.2 0.8,0.9 1.8,1.6 3,2.1 1.1,0.7 2.5,0.9 4,0.9 z"
     id="path11"
     inkscape:connector-curvature="0"
     style="fill:#231f20" /><path
     d="m 197.93512,57.122693 c -0.3,0 -0.7,0 -1,0 -0.3,0 -0.6,0 -1,-0.1 l 0,-12.7 c 0.2,0 0.4,0 0.5,-0.1 0.2,0 0.3,0 0.5,0 0.2,0 0.4,0 0.6,0 1,0 2,0.1 2.9,0.3 0.9,0.2 1.6,0.6 2.3,1.1 0.7,0.5 1.2,1.1 1.5,1.9 0.4,0.8 0.5,1.7 0.5,2.8 0,1.4 -0.3,2.6 -0.7,3.6 -0.5,1 -1.2,1.7 -2.1,2.3 -0.5,0.3 -1.1,0.5 -1.8,0.6 -0.6,0.3 -1.4,0.3 -2.2,0.3 m -0.3,2.1 c 0.5,0 1,0 1.5,0 0.5,0 1,-0.1 1.5,-0.2 1.2,-0.2 2.2,-0.5 3,-1 0.9,-0.5 1.6,-1.1 2.2,-1.9 0.6,-0.8 1,-1.6 1.3,-2.6 0.3,-1 0.4,-2 0.4,-3.1 0,-1.1 -0.2,-2.2 -0.5,-3.1 -0.3,-0.9 -0.8,-1.7 -1.4,-2.3 -0.6,-0.6 -1.3,-1.2 -2.1,-1.6 -0.8,-0.4 -1.7,-0.7 -2.6,-0.9 -1,-0.2 -2,-0.3 -3,-0.3 -0.4,0 -0.7,0 -1.2,0 -0.4,0 -0.8,0 -1.2,0 -0.4,0 -0.8,0 -1.2,0.1 -0.4,0 -0.7,0.1 -1,0.1 l 0,16.5 c 0.7,0 1.5,0.1 2.2,0.1 0.7,0.2 1.4,0.2 2.1,0.2 z"
     id="path13"
     inkscape:connector-curvature="0"
     style="fill:#231f20" /><polygon
     points="314.5,429.5 324.6,429.5 324.6,427.4 317.1,427.4 317.1,421.8 323.3,421.8 323.3,419.7 317.1,419.7 317.1,414.9 324.4,414.9 324.4,412.8 314.5,412.8 "
     id="polygon15"
     style="fill:#231f20"
     transform="translate(-102.66488,-370.37731)" /><path
     d="m 239.83512,49.022693 c -0.5,0 -0.9,0 -1.3,0 -0.4,0 -0.8,-0.1 -1.1,-0.1 l 0,-7.6 c 0.2,0 0.4,0 0.5,0 0.2,0 0.3,0 0.5,0 0.2,0 0.4,0 0.7,0 1,0 1.8,0.1 2.6,0.3 0.7,0.2 1.3,0.6 1.7,1.2 0.4,0.5 0.6,1.3 0.6,2.2 0,0.8 -0.1,1.4 -0.4,2 -0.3,0.5 -0.6,0.9 -1,1.2 -0.4,0.3 -0.9,0.5 -1.4,0.7 -0.5,0.1 -0.9,0.1 -1.4,0.1 m -5.5,10.1 3.1,0 0,-7.9 c 0.4,0 0.8,0.1 1.3,0.1 0.4,0 0.9,0 1.3,0 1,0 2,-0.2 2.9,-0.5 0.9,-0.3 1.6,-0.8 2.3,-1.4 0.7,-0.6 1.2,-1.3 1.5,-2.1 0.4,-0.8 0.6,-1.7 0.6,-2.6 0,-0.9 -0.2,-1.7 -0.4,-2.4 -0.3,-0.7 -0.7,-1.2 -1.2,-1.7 -0.5,-0.5 -1.1,-0.8 -1.8,-1.1 -0.7,-0.3 -1.4,-0.5 -2.1,-0.6 -0.8,-0.1 -1.5,-0.2 -2.3,-0.2 -0.5,0 -1.1,0 -1.7,0 -0.6,0 -1.2,0 -1.8,0.1 -0.6,0 -1.1,0.1 -1.6,0.1 l 0,20.2 z"
     id="path17"
     inkscape:connector-curvature="0"
     style="fill:#231f20" /><path
     d="m 260.73512,57.122693 c -1,0 -1.8,-0.2 -2.6,-0.5 -0.7,-0.3 -1.3,-0.7 -1.8,-1.3 -0.5,-0.5 -0.9,-1.1 -1.2,-1.8 -0.3,-0.7 -0.5,-1.4 -0.7,-2.2 -0.1,-0.8 -0.2,-1.6 -0.2,-2.3 0,-0.8 0.1,-1.5 0.2,-2.3 0.1,-0.8 0.3,-1.5 0.6,-2.1 0.3,-0.7 0.7,-1.3 1.2,-1.8 0.5,-0.5 1.1,-0.9 1.8,-1.3 0.7,-0.3 1.5,-0.5 2.5,-0.5 1,0 1.9,0.2 2.6,0.5 0.7,0.3 1.4,0.8 1.8,1.3 0.5,0.5 0.9,1.2 1.2,1.9 0.3,0.7 0.5,1.4 0.6,2.1 0.1,0.7 0.2,1.5 0.2,2.2 0,0.8 -0.1,1.6 -0.2,2.3 -0.1,0.8 -0.4,1.5 -0.7,2.2 -0.3,0.7 -0.7,1.3 -1.2,1.8 -0.5,0.5 -1.1,0.9 -1.8,1.2 -0.6,0.4 -1.4,0.6 -2.3,0.6 m -0.2,2.4 c 1.5,0 2.8,-0.3 4,-0.8 1.2,-0.5 2.2,-1.3 3.1,-2.3 0.9,-1 1.5,-2.1 2,-3.5 0.5,-1.3 0.7,-2.8 0.7,-4.5 0,-1 -0.1,-2 -0.4,-2.9 -0.3,-1 -0.6,-1.9 -1.1,-2.7 -0.5,-0.8 -1.1,-1.6 -1.9,-2.2 -0.8,-0.6 -1.7,-1.1 -2.7,-1.5 -1,-0.4 -2.2,-0.6 -3.4,-0.6 -1.5,0 -2.9,0.3 -4.1,0.8 -1.2,0.5 -2.2,1.3 -3.1,2.3 -0.9,1 -1.5,2.1 -2,3.4 -0.4,1.3 -0.7,2.7 -0.7,4.3 0,1.5 0.2,2.8 0.7,4 0.4,1.2 1.1,2.3 1.9,3.2 0.8,0.9 1.8,1.6 3,2.1 1.2,0.7 2.5,0.9 4,0.9 z"
     id="path19"
     inkscape:connector-curvature="0"
     style="fill:#231f20" /><path
     d="m 280.63512,48.622693 c -0.4,0 -0.7,0 -1.1,0 -0.4,0 -0.7,0 -1,-0.1 l 0,-7.1 c 0.2,0 0.4,0 0.6,0 0.2,0 0.5,0 0.7,0 0.7,0 1.3,0 1.9,0.1 0.6,0.1 1.2,0.2 1.7,0.5 0.5,0.2 0.9,0.6 1.2,1 0.3,0.5 0.5,1.1 0.5,1.9 0,0.7 -0.1,1.3 -0.4,1.8 -0.2,0.5 -0.6,0.9 -1,1.2 -0.4,0.3 -0.9,0.5 -1.5,0.7 -0.5,-0.1 -1,0 -1.6,0 m -5.3,10.5 3.1,0 0,-8.5 1.8,0.2 6.2,8.3 3.8,0 -5.8,-7.5 c -0.2,-0.3 -0.4,-0.5 -0.7,-0.7 -0.2,-0.2 -0.4,-0.4 -0.6,-0.5 l 0,-0.1 c 1,-0.2 1.9,-0.5 2.7,-1 0.8,-0.5 1.4,-1.1 1.8,-1.9 0.4,-0.8 0.6,-1.6 0.7,-2.6 0,-1 -0.2,-1.8 -0.5,-2.5 -0.3,-0.7 -0.7,-1.2 -1.3,-1.7 -0.5,-0.4 -1.1,-0.8 -1.8,-1 -0.7,-0.2 -1.4,-0.4 -2.1,-0.5 -0.7,-0.1 -1.5,-0.1 -2.2,-0.1 -0.6,0 -1.2,0 -1.8,0 -0.6,0 -1.2,0.1 -1.7,0.1 -0.6,0 -1.1,0.1 -1.6,0.1 l 0,19.9 z"
     id="path21"
     inkscape:connector-curvature="0"
     style="fill:#231f20" /><polygon
     points="411.4,409.4 394.3,409.4 394.3,412 401.3,412 401.3,429.5 404.4,429.5 404.4,412 411.4,412 "
     id="polygon23"
     style="fill:#231f20"
     transform="translate(-102.66488,-370.37731)" /><path
     d="m 321.23512,59.622693 c 0.8,0 1.6,-0.1 2.4,-0.3 0.8,-0.2 1.5,-0.5 2.2,-0.8 0.7,-0.4 1.3,-0.8 1.8,-1.4 0.5,-0.6 0.9,-1.3 1.2,-2.1 0.3,-0.8 0.5,-1.7 0.5,-2.7 l 0,-13.3 -2.9,0 0,12.8 c 0,1 -0.1,1.8 -0.4,2.4 -0.3,0.7 -0.6,1.2 -1.1,1.6 -0.5,0.4 -1,0.7 -1.6,0.8 -0.6,0.2 -1.3,0.3 -1.9,0.3 -1.2,0 -2.2,-0.2 -3,-0.5 -0.8,-0.4 -1.4,-0.9 -1.8,-1.7 -0.4,-0.8 -0.6,-1.7 -0.6,-3 l 0,-12.8 -3.2,0 0,13.3 c 0,1.1 0.1,2.1 0.4,3 0.3,0.9 0.8,1.6 1.4,2.3 0.7,0.6 1.5,1.1 2.6,1.5 1.1,0.4 2.4,0.6 4,0.6"
     id="path25"
     inkscape:connector-curvature="0"
     style="fill:#231f20" /><path
     d="m 345.03512,59.522693 c 1.1,0 2.3,-0.1 3.5,-0.2 1.2,-0.2 2.5,-0.4 3.8,-0.8 l 0,-9.6 -8.6,0 0,2.4 5.6,0 0,5.4 c -0.4,0.1 -0.9,0.1 -1.3,0.2 -0.4,0.1 -0.9,0.1 -1.3,0.1 -0.5,0 -1,0 -1.5,0 -1.7,0 -3.1,-0.3 -4.3,-0.9 -1.2,-0.6 -2.1,-1.5 -2.7,-2.7 -0.6,-1.2 -0.9,-2.7 -0.9,-4.4 0,-1.2 0.2,-2.2 0.6,-3.1 0.4,-0.9 1,-1.8 1.7,-2.4 0.7,-0.7 1.6,-1.2 2.5,-1.6 1,-0.4 2,-0.6 3.1,-0.6 0.8,0 1.5,0.1 2.2,0.2 0.7,0.1 1.4,0.2 2,0.4 0.6,0.2 1.3,0.4 1.9,0.7 l 0.8,-2.5 c -1.1,-0.5 -2.2,-0.8 -3.3,-1 -1.2,-0.2 -2.4,-0.3 -3.6,-0.3 -1.3,0 -2.5,0.2 -3.6,0.5 -1.1,0.3 -2.2,0.8 -3.1,1.4 -0.9,0.6 -1.7,1.4 -2.4,2.3 -0.7,0.9 -1.2,1.9 -1.6,3 -0.4,1.1 -0.6,2.3 -0.6,3.6 0,1.4 0.2,2.6 0.6,3.6 0.4,1.1 0.9,2 1.6,2.8 0.7,0.8 1.5,1.4 2.4,2 0.9,0.5 1.9,0.9 3,1.2 1.2,0.1 2.3,0.3 3.5,0.3"
     id="path27"
     inkscape:connector-curvature="0"
     style="fill:#231f20" /><path
     d="m 362.43512,50.422693 2.3,-6.5 c 0.1,-0.2 0.1,-0.4 0.2,-0.7 0.1,-0.3 0.2,-0.5 0.2,-0.8 0.1,-0.3 0.1,-0.5 0.2,-0.8 l 0.1,0 c 0,0.2 0.1,0.5 0.2,0.8 0.1,0.3 0.1,0.5 0.2,0.8 0.1,0.2 0.1,0.5 0.2,0.6 l 2.3,6.6 -5.9,0 z m -6,8.7 3,0 2.2,-6.3 7.7,0 2.2,6.3 3.3,0 -7.3,-20.3 -3.6,0 -7.5,20.3 z"
     id="path29"
     inkscape:connector-curvature="0"
     style="fill:#231f20" /><polygon
     points="481.4,429.5 493.5,429.5 493.5,426.9 484.6,426.9 484.6,409.4 481.4,409.4 "
     id="polygon31"
     style="fill:#231f20"
     transform="translate(-102.66488,-370.37731)" /><polygon
     points="185.4,447.9 191,447.9 191,446.7 186.9,446.7 186.9,443.7 190.3,443.7 190.3,442.5 186.9,442.5 186.9,439.8 190.9,439.8 190.9,438.7 185.4,438.7 "
     id="polygon33"
     style="fill:#231f20"
     transform="translate(-102.66488,-370.37731)" /><path
     d="m 98.83512,77.722693 c 0.4,0 0.7,0 1.1,-0.1 0.4,-0.1 0.7,-0.2 1,-0.4 0.3,-0.2 0.6,-0.4 0.8,-0.6 0.2,-0.3 0.4,-0.6 0.6,-0.9 0.1,-0.4 0.2,-0.8 0.2,-1.2 l 0,-6.1 -1.3,0 0,5.9 c 0,0.4 -0.1,0.8 -0.2,1.1 -0.1,0.3 -0.3,0.5 -0.5,0.7 -0.2,0.2 -0.5,0.3 -0.7,0.4 -0.3,0.1 -0.6,0.1 -0.9,0.1 -0.6,0 -1,-0.1 -1.4,-0.2 -0.4,-0.2 -0.6,-0.4 -0.8,-0.8 -0.2,-0.3 -0.3,-0.8 -0.3,-1.4 l 0,-5.9 -1.5,0 0,6.1 c 0,0.5 0.1,1 0.2,1.4 0.1,0.4 0.4,0.8 0.7,1 0.3,0.3 0.7,0.5 1.2,0.7 0.5,0.1 1.1,0.2 1.8,0.2"
     id="path35"
     inkscape:connector-curvature="0"
     style="fill:#231f20" /><path
     d="m 112.13512,72.622693 c -0.2,0 -0.3,0 -0.5,0 -0.2,0 -0.3,0 -0.5,0 l 0,-3.3 c 0.1,0 0.2,0 0.3,0 0.1,0 0.2,0 0.3,0 0.3,0 0.6,0 0.9,0 0.3,0 0.6,0.1 0.8,0.2 0.2,0.1 0.4,0.3 0.6,0.5 0.1,0.2 0.2,0.5 0.2,0.9 0,0.3 -0.1,0.6 -0.2,0.8 -0.1,0.2 -0.3,0.4 -0.5,0.5 -0.2,0.1 -0.4,0.2 -0.7,0.3 -0.1,0.1 -0.4,0.1 -0.7,0.1 m -2.4,4.9 1.4,0 0,-3.9 0.8,0.1 2.9,3.8 1.7,0 -2.7,-3.4 c -0.1,-0.1 -0.2,-0.2 -0.3,-0.3 -0.1,-0.1 -0.2,-0.2 -0.3,-0.2 l 0,-0.1 c 0.5,-0.1 0.9,-0.2 1.2,-0.5 0.4,-0.2 0.6,-0.5 0.8,-0.9 0.2,-0.4 0.3,-0.8 0.3,-1.2 0,-0.5 -0.1,-0.8 -0.2,-1.2 -0.1,-0.3 -0.3,-0.6 -0.6,-0.8 -0.2,-0.2 -0.5,-0.4 -0.8,-0.5 -0.3,-0.1 -0.6,-0.2 -1,-0.2 -0.3,0 -0.7,-0.1 -1,-0.1 -0.3,0 -0.5,0 -0.8,0 -0.3,0 -0.5,0 -0.8,0 -0.3,0 -0.5,0 -0.7,0.1 l 0,9.3 z"
     id="path37"
     inkscape:connector-curvature="0"
     style="fill:#231f20" /><path
     d="m 126.83512,76.522693 c -0.5,0 -0.8,-0.1 -1.2,-0.2 -0.3,-0.1 -0.6,-0.3 -0.8,-0.6 -0.2,-0.2 -0.4,-0.5 -0.6,-0.8 -0.1,-0.3 -0.2,-0.6 -0.3,-1 -0.1,-0.4 -0.1,-0.7 -0.1,-1.1 0,-0.3 0,-0.7 0.1,-1 0.1,-0.3 0.2,-0.7 0.3,-1 0.1,-0.3 0.3,-0.6 0.5,-0.8 0.2,-0.2 0.5,-0.4 0.8,-0.6 0.3,-0.1 0.7,-0.2 1.1,-0.2 0.5,0 0.9,0.1 1.2,0.2 0.3,0.1 0.6,0.3 0.8,0.6 0.2,0.3 0.4,0.5 0.5,0.9 0.1,0.3 0.2,0.6 0.3,1 0.1,0.3 0.1,0.7 0.1,1 0,0.4 0,0.7 -0.1,1.1 -0.1,0.4 -0.2,0.7 -0.3,1 -0.1,0.3 -0.3,0.6 -0.5,0.8 -0.2,0.2 -0.5,0.4 -0.8,0.6 -0.2,0.1 -0.5,0.1 -1,0.1 m 0,1.2 c 0.7,0 1.3,-0.1 1.8,-0.4 0.5,-0.2 1,-0.6 1.4,-1 0.4,-0.4 0.7,-1 0.9,-1.6 0.2,-0.6 0.3,-1.3 0.3,-2 0,-0.5 -0.1,-0.9 -0.2,-1.3 -0.1,-0.4 -0.3,-0.9 -0.5,-1.2 -0.2,-0.4 -0.5,-0.7 -0.9,-1 -0.4,-0.3 -0.8,-0.5 -1.2,-0.7 -0.5,-0.2 -1,-0.3 -1.6,-0.3 -0.7,0 -1.3,0.1 -1.9,0.4 -0.6,0.2 -1,0.6 -1.4,1 -0.4,0.4 -0.7,1 -0.9,1.6 -0.2,0.6 -0.3,1.3 -0.3,2 0,0.7 0.1,1.3 0.3,1.8 0.2,0.6 0.5,1.1 0.9,1.5 0.4,0.4 0.8,0.7 1.4,1 0.5,0.1 1.2,0.2 1.9,0.2 z"
     id="path39"
     inkscape:connector-curvature="0"
     style="fill:#231f20" /><path
     d="m 140.23512,77.722693 c 0.5,0 1,-0.1 1.4,-0.2 0.4,-0.1 0.7,-0.3 1,-0.6 0.3,-0.2 0.5,-0.5 0.6,-0.9 0.1,-0.3 0.2,-0.7 0.2,-1.1 0,-0.4 -0.1,-0.8 -0.2,-1.1 -0.2,-0.3 -0.4,-0.6 -0.7,-0.9 -0.3,-0.2 -0.7,-0.5 -1.1,-0.7 l -1,-0.4 c -0.1,-0.1 -0.3,-0.1 -0.4,-0.2 -0.2,-0.1 -0.3,-0.2 -0.4,-0.3 -0.1,-0.1 -0.2,-0.2 -0.3,-0.4 -0.1,-0.1 -0.1,-0.3 -0.1,-0.5 0,-0.2 0.1,-0.4 0.2,-0.6 0.1,-0.2 0.3,-0.3 0.5,-0.4 0.2,-0.1 0.5,-0.1 0.8,-0.1 0.3,0 0.5,0 0.8,0.1 0.2,0 0.4,0.1 0.7,0.2 0.2,0.1 0.4,0.1 0.6,0.2 l 0.4,-1.2 c -0.2,-0.1 -0.4,-0.2 -0.7,-0.2 -0.3,-0.1 -0.5,-0.1 -0.8,-0.2 -0.3,0 -0.6,-0.1 -0.9,-0.1 -0.4,0 -0.8,0.1 -1.2,0.2 -0.3,0.1 -0.6,0.2 -0.9,0.4 -0.2,0.2 -0.4,0.4 -0.6,0.6 -0.2,0.2 -0.3,0.5 -0.3,0.7 -0.1,0.2 -0.1,0.5 -0.1,0.7 0,0.3 0.1,0.6 0.2,0.9 0.1,0.2 0.2,0.5 0.4,0.6 0.2,0.2 0.4,0.3 0.6,0.5 0.2,0.1 0.5,0.3 0.7,0.4 l 1,0.4 c 0.3,0.1 0.6,0.3 0.9,0.4 0.2,0.2 0.4,0.3 0.5,0.5 0.1,0.2 0.2,0.4 0.2,0.7 0,0.3 -0.1,0.6 -0.2,0.8 -0.2,0.2 -0.4,0.4 -0.6,0.4 -0.3,0.1 -0.6,0.1 -0.9,0.1 -0.4,0 -0.7,0 -1.1,-0.1 -0.4,-0.1 -0.8,-0.2 -1.2,-0.4 l -0.4,1.2 c 0.3,0.1 0.5,0.2 0.8,0.3 0.3,0.1 0.6,0.1 1,0.2 0,0 0.3,0.1 0.6,0.1"
     id="path41"
     inkscape:connector-curvature="0"
     style="fill:#231f20" /><rect
     x="150.23512"
     y="68.322708"
     width="1.4"
     height="9.1999998"
     id="rect43"
     style="fill:#231f20" /><path
     d="m 161.13512,77.722693 c 0.5,0 1,-0.1 1.4,-0.2 0.4,-0.1 0.8,-0.3 1,-0.6 0.3,-0.2 0.5,-0.5 0.6,-0.9 0.1,-0.3 0.2,-0.7 0.2,-1.1 0,-0.4 -0.1,-0.8 -0.2,-1.1 -0.2,-0.3 -0.4,-0.6 -0.7,-0.9 -0.3,-0.2 -0.7,-0.5 -1.1,-0.7 l -1,-0.4 c -0.1,-0.1 -0.3,-0.1 -0.4,-0.2 -0.2,-0.1 -0.3,-0.2 -0.4,-0.3 -0.1,-0.1 -0.2,-0.2 -0.3,-0.4 -0.1,-0.1 -0.1,-0.3 -0.1,-0.5 0,-0.2 0.1,-0.4 0.2,-0.6 0.1,-0.2 0.3,-0.3 0.5,-0.4 0.2,-0.1 0.5,-0.1 0.8,-0.1 0.3,0 0.5,0 0.8,0.1 0.2,0 0.5,0.1 0.7,0.2 0.2,0.1 0.4,0.1 0.6,0.2 l 0.4,-1.2 c -0.2,-0.1 -0.4,-0.2 -0.7,-0.2 -0.3,-0.1 -0.5,-0.1 -0.8,-0.2 -0.3,0 -0.6,-0.1 -0.9,-0.1 -0.4,0 -0.8,0.1 -1.2,0.2 -0.3,0.1 -0.6,0.2 -0.9,0.4 -0.2,0.2 -0.4,0.4 -0.6,0.6 -0.2,0.2 -0.3,0.5 -0.3,0.7 -0.1,0.2 -0.1,0.5 -0.1,0.7 0,0.3 0.1,0.6 0.2,0.9 0.1,0.2 0.2,0.5 0.4,0.6 0.2,0.2 0.4,0.3 0.6,0.5 0.2,0.1 0.5,0.3 0.7,0.4 l 1,0.4 c 0.3,0.1 0.6,0.3 0.9,0.4 0.2,0.2 0.4,0.3 0.5,0.5 0.1,0.2 0.2,0.4 0.2,0.7 0,0.3 -0.1,0.6 -0.2,0.8 -0.2,0.2 -0.4,0.4 -0.6,0.4 -0.3,0.1 -0.6,0.1 -0.9,0.1 -0.4,0 -0.7,0 -1.1,-0.1 -0.4,-0.1 -0.8,-0.2 -1.2,-0.4 l -0.4,1.2 c 0.3,0.1 0.5,0.2 0.8,0.3 0.3,0.1 0.6,0.1 1,0.2 0,0 0.3,0.1 0.6,0.1"
     id="path45"
     inkscape:connector-curvature="0"
     style="fill:#231f20" /><polygon
     points="280.9,438.7 273,438.7 273,439.8 276.2,439.8 276.2,447.9 277.7,447.9 277.7,439.8 280.9,439.8 "
     id="polygon47"
     style="fill:#231f20"
     transform="translate(-102.66488,-370.37731)" /><polygon
     points="287.4,447.9 292.9,447.9 292.9,446.7 288.8,446.7 288.8,443.7 292.2,443.7 292.2,442.5 288.8,442.5 288.8,439.8 292.8,439.8 292.8,438.7 287.4,438.7 "
     id="polygon49"
     style="fill:#231f20"
     transform="translate(-102.66488,-370.37731)" /><path
     d="m 196.63512,77.522693 1.2,0 0.5,-6.4 0,-0.6 c 0,-0.1 0,-0.3 0,-0.4 0,-0.1 0,-0.3 0,-0.4 l 0.1,0 c 0,0.1 0.1,0.3 0.1,0.5 0,0.2 0.1,0.3 0.1,0.5 0,0.2 0.1,0.3 0.1,0.5 l 2.1,6.5 1.4,0 2.1,-6.4 c 0,-0.2 0.1,-0.3 0.1,-0.5 0,-0.2 0.1,-0.3 0.1,-0.5 0,-0.2 0.1,-0.3 0.1,-0.5 l 0.1,0 c 0,0.1 0,0.3 0,0.3 0,0.1 0,0.2 0,0.3 0,0.1 0,0.2 0,0.3 0,0.1 0,0.2 0,0.3 0,0.1 0,0.2 0,0.3 0,0.1 0,0.2 0,0.3 l 0.5,6.3 1.4,0 -0.8,-9.2 -1.9,0 -2.2,6.7 c 0,0.1 -0.1,0.2 -0.1,0.3 0,0.1 -0.1,0.3 -0.1,0.4 0,0.1 0,0.2 -0.1,0.3 l 0,0 c 0,-0.1 0,-0.2 -0.1,-0.3 0,-0.1 -0.1,-0.3 -0.1,-0.4 0,-0.1 -0.1,-0.2 -0.1,-0.3 l -2.2,-6.6 -1.8,0 -0.5,8.7 z"
     id="path51"
     inkscape:connector-curvature="0"
     style="fill:#231f20" /><path
     d="m 215.63512,73.522693 1,-3 c 0,-0.1 0.1,-0.2 0.1,-0.3 0,-0.1 0.1,-0.2 0.1,-0.4 0,-0.1 0.1,-0.2 0.1,-0.4 l 0.1,0 c 0,0.1 0,0.2 0.1,0.3 0,0.1 0.1,0.2 0.1,0.4 0,0.1 0.1,0.2 0.1,0.3 l 1.1,3 -2.8,0 z m -2.8,4 1.4,0 1,-2.9 3.5,0 1,2.9 1.5,0 -3.4,-9.3 -1.7,0 -3.3,9.3 z"
     id="path53"
     inkscape:connector-curvature="0"
     style="fill:#231f20" /><path
     d="m 36.735116,82.42269 c -17.6,2.5 -33.8999995,-9.799997 -36.39999951,-27.399997 -1.69999999,-11.7 3.20000001,-22.8 11.69999951,-29.6 -7.8999995,6.6 -12.39999951,17 -10.7999995,28 2.4,16.8 17.8999995,28.399997 34.6999995,26.1 16.8,-2.4 28.400004,-17.9 26.1,-34.7 -2.4,-16.7 -17.8,-28.3 -34.5,-26.1 0.1,0 0.1,0 0.2,0 17.6,-2.5 33.9,9.8 36.400004,27.4 2.4,17.5 -9.800004,33.8 -27.400004,36.299997"
     id="path55"
     inkscape:connector-curvature="0"
     style="clip-rule:evenodd;fill:#9c7d40;fill-rule:evenodd" /><path
     d="m 32.235116,56.222693 c -3.9,-1 -7.8,-5.1 -5,-9 0.8,-0.4 1.7,-1.5 1.6,-2.7 -0.1,-1.2 -0.8,-1.4 -1.3,-2.3 -0.6,-0.9 1.5,-2.5 0.4,-4.3 0.7,-0.1 1.8,-0.7 2.1,0.7 1.1,5.3 0.7,12.5 2.2,17.6"
     id="path57"
     inkscape:connector-curvature="0"
     style="clip-rule:evenodd;fill:#9c7d40;fill-rule:evenodd" /><path
     d="m 8.9351165,39.922693 1.1999995,1.4 0,0 c 0.4,0 0.7,-0.7 0,-1.5 -2.1999995,-2.5 -0.4999995,-5.4 3.8,-1.4 0.6,0.6 1.6,1.3 2.4,1.4 -0.8,0.6 -1.8,1.5 -2.7,2 -0.7,0.3 -1.7,0.6 -2.7,0.3 l -0.1,0.1 7.4,9 -1.5,-0.6 -6.3,-7.5 c 0.2,1.4 -0.6999995,2.5 -1.0999995,2.9 l -1.8,1.9 c 0,-0.8 -0.6,-1.9 -1.1,-2.6 -3.6,-4.7 -0.6,-6.1 1.7,-3.7 0.7,0.7 1.1,0.6 1.4,0.3 l -1.3,-1.5 c -0.1,0 -0.1,0 -0.2,0 -0.6,0.1 -1.2,-0.4 -1.2,-1 -0.1,-0.6 0.4,-1.2 1,-1.2 0.6,-0.1 1.2,0.4 1.2,1 0.1,0.3 0,0.5 -0.1,0.7"
     id="path59"
     inkscape:connector-curvature="0"
     style="clip-rule:evenodd;fill:#9c7d40;fill-rule:evenodd" /><path
     d="m 30.135116,64.722693 c 0,0.3 -0.1,0.5 -0.5,0.5 l -3.7,-4.3 c 0.1,0 0.2,-0.1 0.3,-0.3 0.1,0 0.2,0 0.3,-0.1 l 3.6,4.2 z"
     id="path61"
     inkscape:connector-curvature="0"
     style="clip-rule:evenodd;fill:#9c7d40;fill-rule:evenodd" /><path
     d="m 13.635116,47.722693 c -0.8,1.1 -1.2,1.5 -1.8,2.1 1.9,0.5 3.8,1.1 5.6,1.9 0.5,0.2 0.9,0.4 1.4,0.5 1.5,0.6 3.1,1.1 4.3,2 0.5,0.4 1.3,0.8 1.8,1.2 0.3,0.3 0.9,0.9 1.1,1.2 0.1,0.2 0.2,0.4 0.3,0.6 0.2,0.5 0.2,0.9 0.4,1.5 0,0.3 0,0.8 0,1.1 0,0.1 0,0.3 -0.1,0.3 -0.1,0 -0.1,0 -0.2,-0.1 -0.1,-0.1 -0.1,-0.5 -0.1,-1.4 -0.3,-0.8 -0.3,-1 -0.3,-1 0,0 -0.1,0 -0.1,0.1 0,0.2 0.2,1 0.2,1.6 0,0.5 0,1 0,1.1 0,0.2 -0.2,0.2 -0.2,0 0,-0.1 0,-0.4 -0.1,-0.7 0,-0.3 -0.1,-0.7 -0.2,-1 -0.1,-0.4 -0.2,-0.8 -0.3,-0.8 0,0 0.1,0.6 0.2,1.2 0,0.2 0.1,1 0.1,1.1 0,0 0,0.1 -0.1,0.1 -0.1,0 -0.2,-0.1 -0.2,-0.3 0,-0.2 -0.1,-0.5 -0.2,-0.9 -0.1,-0.6 -0.2,-1.2 -0.4,-1.1 0,0 0.1,0.6 0.2,1.1 0,0.2 0.1,0.5 0,0.6 0,0.1 0,0.1 -0.1,0.1 -0.1,0 -0.2,-0.5 -0.2,-0.6 -0.2,-0.6 -0.4,-1.4 -0.5,-1.5 -0.6,-0.8 -1.3,-1.1 -1.9,-2.3 l 0,0 c -0.4,-0.2 -0.8,-0.4 -1.3,-0.6 -0.4,-0.2 -0.9,-0.3 -1.3,-0.4 -3.3,-0.9 -7.5,-0.9 -10.0999995,-2.1 -0.4,-0.2 -1,-0.5 -1.4,-0.8 -0.1,-0.6 0,-1.3 0.4,-2.2 0.8,-2 1.2,-3.2 2.4999995,-4.9 l 2.6,3.3 z"
     id="path63"
     inkscape:connector-curvature="0"
     style="clip-rule:evenodd;fill:#9c7d40;fill-rule:evenodd" /><path
     d="m 39.935116,76.322693 c -4.2,1.2 -8.5,1.6 -12.7,0.9 1.2,-4.1 1,-5.8 1,-10.2 1.8,1.2 3.1,2.1 7.8,3.3 0.6,1.6 1.6,4.2 3.9,6"
     id="path65"
     inkscape:connector-curvature="0"
     style="clip-rule:evenodd;fill:#9c7d40;fill-rule:evenodd" /><path
     d="m 22.435116,28.222693 c -1.6,0.7 -2.8,3.3 -2,5 -1,0.7 -3,-4.8 2,-5 m -5.3,11.2 c 1.4,-0.6 2.8,-0.6 3.8,-1.9 0.5,-0.7 0.9,-1.4 1.3,-2.2 -0.2,-0.3 -0.6,-0.5 -0.9,-0.8 -1.5,-1.8 0,-6.7 3.7,-6.7 1.1,0 2.6,0.3 3,1.5 -2.3,-1.3 -5.4,0.5 -4.9,2.9 0.4,-2.1 3.1,-3.2 5,-2.1 0,0.3 -0.3,1.2 -0.2,1.5 0.3,0.6 0.8,1.2 1,1.6 0,0.1 0.1,0.2 0,0.2 -0.2,0.1 -0.4,0.1 -0.5,0.2 l 0.2,0.5 c -0.1,0.1 -0.1,0.3 -0.3,0.3 0.1,0.1 0.1,0.2 0.2,0.3 l -0.3,0.4 0.1,0.4 c 0,0.3 0,0.5 -0.2,0.7 -0.2,0.2 -0.3,0.2 -0.6,0.2 l -1.7,0.1 c -0.6,0.6 -0.7,1.3 -1,2.1 0.5,0.1 1,0.1 1.5,-0.1 -0.3,4.3 -3.8,4.3 -7.4,2.2 0.6,1.4 0.2,2.1 -0.2,3.1 -1.1,3 2.6,4.8 4.6,2.8 -3.7,1.3 -4.6,-1.1 -3.9,-2.9 0.2,-0.5 0.6,-0.7 0.3,-2 6.1,3.6 7.4,-1.9 7.5,-3.5 0.8,0.6 -0.1,2.4 -0.4,3.3 -0.1,0.1 -0.2,0.5 0,0.9 0.2,0.4 1.3,1.6 1.3,2.2 0.1,0.9 -0.5,2.3 -2.8,2.4 0.4,0.4 0.8,0.4 1.2,0.5 -0.7,0.6 -0.6,1.7 -1.2,2.3 -0.4,0.4 -1,0.7 -2.1,0.6 0.6,0.5 2,0.3 2.4,0 0.1,0.6 0.2,1.1 0.3,1.6 -1.2,0.8 -3,0.2 -3.4,0.1 0.5,0.6 2,1.2 3.7,0.8 3.5,7 13.9,2.6 23.4,12 0.3,0.3 0.4,0.4 0.6,0.7 0.5,0.9 1,2.7 1.2,4.2 -0.5,0.4 -2.1,1.8 -2.6,2.2 0.1,-1.4 0,-3.7 -0.5,-4.6 -3,-2.4 -8.4,-5.1 -13,-6.3 2.5,1.2 8.8,4.2 11.2,6.5 0.6,0.6 0.7,0.9 1,1.7 0.3,1 0.6,1.9 0.9,2.9 -1.9,1.4 -3.6,2.4 -6.2,3.5 -1.2,-0.1 -4.2,-3 -5,-5.2 3.1,0.5 5.3,-0.1 6.5,-0.7 -5.5,1.2 -15.4,-1.9 -16,-5.9 0.6,0.7 1.4,1.5 2,2 0.4,0.2 1.3,0 1.1,-1.1 l -3.8,-4.4 c 0.1,-0.4 0.2,-0.9 0.2,-1.3 -0.1,-0.7 -0.2,-1.1 -0.4,-1.7 -0.2,-0.7 -0.6,-1.2 -0.9,-1.5 -1.9,-1.9 -3.9,-2.8 -6,-3.8 -0.2,-0.3 -2.6,-3.1 -2.6,-3.2 -0.4,-1.4 -1,-3.1 -1,-4.5 -0.3,0.6 -0.7,1 -1.3,1.8 l -2.5,-2.8 c 1,0 2.8,-0.8 4.6,-2.8 0.2,-0.2 0.4,-0.5 0.6,-0.8 -0.3,-0.2 -0.5,-0.3 -0.6,-0.4 z"
     id="path67"
     inkscape:connector-curvature="0"
     style="clip-rule:evenodd;fill:#9c7d40;fill-rule:evenodd" /><path
     d="m 49.135116,27.222693 c 0.1,0 0.2,0 0.2,0.1 0,0.1 -0.2,0.2 -0.3,0.2 -0.5,0.2 -1.4,0.3 -1.6,0.3 -0.4,0.1 -1.2,1 -1.6,1.3 l -0.5,0.4 c 0.3,0.2 0.3,0.5 0.8,0.7 0.6,0.2 1.4,0.3 1.6,0.6 0.1,0.2 -0.1,0.3 -0.3,0.3 -0.2,0 -0.5,-0.1 -0.8,-0.1 -0.2,0 -0.3,0 -0.4,0 -0.2,0 -0.4,-0.1 -0.5,-0.1 -0.5,0 -0.9,0 -1.2,0 -0.3,0 -0.5,0 -0.8,-0.1 -0.2,-0.1 -0.1,-0.2 -0.6,-0.1 -0.5,0.1 -1.1,0.5 -1.6,1.2 -1,1.3 -1.8,2.7 -2.7,3.8 -1.3,1.5 -4.9,4.4 -7.5,5.3 -0.1,-1 -0.3,-2.4 -0.7,-3.2 7.2,-3.5 2.3,-0.3 8,-5.2 1.6,-1.4 4.1,-3.7 6.7,-4.4 0.7,-0.2 1.4,-0.7 2.1,-0.9 0.2,0 1.2,-0.1 1.7,-0.1"
     id="path69"
     inkscape:connector-curvature="0"
     style="clip-rule:evenodd;fill:#9c7d40;fill-rule:evenodd" /><path
     d="m 47.435116,28.322693 c 0.1,0 0.2,0.1 0.3,0.1 0.1,0.1 0.2,0.2 0.3,0.3 0.3,0.3 0.4,0.5 0.6,0.8 0.1,0.3 0.2,0.6 0.2,0.8 0,0.1 -0.2,0 -0.3,-0.1 -0.1,-0.1 -0.1,-0.3 -0.3,-0.6 -0.3,-0.1 -0.4,-0.4 -0.5,-0.4 0,0 0.2,0.5 0.2,0.5 0,0.3 -0.1,0.7 -0.1,0.9 -0.1,0.1 -0.1,0 -0.2,-0.1 -0.1,-0.2 -0.1,-0.5 -0.1,-0.7 -0.2,-0.2 -0.2,-0.3 -0.4,-0.6 0,0 -0.1,0 -0.1,0 0.1,0.1 0.1,0.3 0.2,0.4 0.1,0.2 0.1,0.4 0.1,0.6 0,0 0,0.1 -0.1,0.2 -0.1,0 -0.1,-0.1 -0.1,-0.1 -0.1,-0.1 -0.1,-0.4 -0.1,-0.5 -0.2,-0.1 -0.2,-0.1 -0.3,-0.3 -0.3,0 -0.5,-0.1 -0.6,-0.1 0.5,-0.4 0.9,-0.9 1.3,-1.1"
     id="path71"
     inkscape:connector-curvature="0"
     style="clip-rule:evenodd;fill:#9c7d40;fill-rule:evenodd" /><path
     d="m 13.035116,70.522693 c -2.6,-6 -4.1999995,-13.1 -4.4999995,-15.6 l 5.4999995,-0.1 c 1,0 4.6,0.3 6.5,1 0.4,0.1 0.8,0.3 1.1,0.5 0,0.1 0.1,0.1 0.1,0.2 -2.1,0.2 -7.6,0.7 -10.2,0.9 0.5,4.1 2.7,11.4 5.4,16.1 -1.4,-0.9 -2.7,-1.9 -3.9,-3 m 12.9,6.5 c -0.6,-0.1 -1.2,-0.3 -1.7,-0.4 1.3,-2.4 1.2,-7.8 0.6,-12.3 -0.3,-1.8 -1,-4.3 -1.4,-6.2 0.4,0.2 0.7,1.1 0.8,1.5 0.1,0.4 0.1,0.6 0.2,0.7 0.2,0.3 0.5,0.3 0.6,0.3 0.1,0.2 0.4,0.4 0.6,0.3 l 0,0 c 0.1,0 0.2,0.1 0.3,0 0.8,4.3 1.1,8.4 0.8,11.9 0,1.5 -0.2,2.8 -0.8,4.2 z"
     id="path73"
     inkscape:connector-curvature="0"
     style="clip-rule:evenodd;fill:#9c7d40;fill-rule:evenodd" /></svg>